<svg width="24" height="24" viewBox="0 0 24 24" fill="none" xmlns="http://www.w3.org/2000/svg">
<mask id="mask0_6937_23685" style="mask-type:alpha" maskUnits="userSpaceOnUse" x="0" y="0" width="24" height="24">
<rect width="24" height="24" fill="#D9D9D9"/>
</mask>
<g mask="url(#mask0_6937_23685)">
<path d="M15.2995 16.3448L11.2495 12.2948V7.2505H12.7495V11.7063L16.3438 15.3005L15.2995 16.3448ZM3.39752 16.0468C3.14886 15.5312 2.95302 14.9959 2.81002 14.4408C2.66719 13.8857 2.57394 13.3223 2.53027 12.7505H4.04577C4.08927 13.1902 4.16811 13.6235 4.28227 14.0505C4.39627 14.4775 4.54561 14.8929 4.73027 15.2968L3.39752 16.0468ZM2.53027 11.2505C2.57394 10.6787 2.66886 10.1127 2.81502 9.5525C2.96119 8.99217 3.16369 8.45108 3.42252 7.92925L4.73027 8.67925C4.53927 9.08308 4.38836 9.50008 4.27752 9.93025C4.16652 10.3604 4.08927 10.8005 4.04577 11.2505H2.53027ZM6.63602 19.8428C6.14769 19.5031 5.69577 19.1246 5.28027 18.7073C4.86494 18.2899 4.48736 17.837 4.14752 17.3485L5.45527 16.589C5.72061 16.9658 6.01452 17.3155 6.33702 17.638C6.65952 17.9605 7.00919 18.2544 7.38602 18.5198L6.63602 19.8428ZM5.48027 7.387L4.14752 6.637C4.48736 6.14867 4.86494 5.69833 5.28027 5.286C5.69577 4.87383 6.14769 4.49792 6.63602 4.15825L7.38602 5.48125C7.01936 5.74658 6.67644 6.03892 6.35727 6.35825C6.03794 6.67742 5.74561 7.02033 5.48027 7.387ZM11.2495 21.4698C10.6777 21.4261 10.1117 21.3312 9.55152 21.185C8.99119 21.0388 8.45011 20.8363 7.92827 20.5775L8.67827 19.2698C9.08211 19.4608 9.49911 19.6117 9.92927 19.7225C10.3594 19.8335 10.7995 19.9108 11.2495 19.9543V21.4698ZM8.67827 4.73125L7.92827 3.4235C8.45011 3.16467 8.99119 2.96217 9.55152 2.816C10.1117 2.66983 10.6777 2.57492 11.2495 2.53125V4.04675C10.7995 4.09025 10.3594 4.1675 9.92927 4.2785C9.49911 4.38933 9.08211 4.54025 8.67827 4.73125ZM12.7495 21.4698V19.9543C13.1995 19.9108 13.6396 19.8335 14.0698 19.7225C14.4999 19.6117 14.9169 19.4608 15.3208 19.2698L16.0708 20.5775C15.5489 20.8363 15.0079 21.0388 14.4475 21.185C13.8874 21.3312 13.3214 21.4261 12.7495 21.4698ZM15.3208 4.73125C14.9169 4.54025 14.4999 4.38933 14.0698 4.2785C13.6396 4.1675 13.1995 4.09025 12.7495 4.04675V2.53125C13.3214 2.57492 13.8874 2.66983 14.4475 2.816C15.0079 2.96217 15.5489 3.16467 16.0708 3.4235L15.3208 4.73125ZM17.363 19.8428L16.613 18.5198C16.9797 18.2544 17.3226 17.9621 17.6418 17.6428C17.9611 17.3236 18.2534 16.9807 18.5188 16.614L19.8418 17.364C19.5021 17.8523 19.1262 18.3052 18.714 18.7225C18.3017 19.1398 17.8514 19.5133 17.363 19.8428ZM18.5188 7.3775C18.2534 7.01083 17.9611 6.6695 17.6418 6.3535C17.3226 6.03733 16.9797 5.74658 16.613 5.48125L17.363 4.15825C17.8514 4.48775 18.3017 4.857 18.714 5.266C19.1262 5.675 19.497 6.12367 19.8265 6.612L18.5188 7.3775ZM19.9533 11.2505C19.9098 10.8005 19.8309 10.3604 19.7168 9.93025C19.6028 9.50008 19.4502 9.07992 19.259 8.66975L20.5765 7.90425C20.8252 8.43642 21.0252 8.98258 21.1765 9.54275C21.3277 10.1031 21.4251 10.6723 21.4688 11.2505H19.9533ZM20.5765 16.0717L19.2688 15.3218C19.4598 14.9179 19.6107 14.5009 19.7215 14.0708C19.8325 13.6406 19.9098 13.2005 19.9533 12.7505H21.4688C21.4251 13.3223 21.3302 13.8883 21.184 14.4485C21.0379 15.0088 20.8354 15.5499 20.5765 16.0717Z" fill="#2E2D2C"/>
</g>
</svg>
